<?xml version="1.0" encoding="UTF-8"?>
<svg width="20px" height="20px" viewBox="0 0 20 20" version="1.1" xmlns="http://www.w3.org/2000/svg" xmlns:xlink="http://www.w3.org/1999/xlink">
    <!-- Generator: Sketch 43.1 (39012) - http://www.bohemiancoding.com/sketch -->
    <title>Canada Flag</title>
    <desc>Created with Sketch.</desc>
    <defs>
        <path d="M0.859272466,0 C0.39450292,0 0.0177559975,0.386542688 0.0177559975,0.863332389 L0.0177559975,12.9212081 C0.0177559975,13.3979978 0.39450292,13.7845405 0.859272466,13.7845405 L17.0911995,13.7845405 C17.555941,13.7845405 17.9327159,13.3979978 17.9327159,12.9212081 L17.9327159,0.863332389 C17.9327159,0.386542688 17.555941,0 17.0911995,0 L0.859272466,0 L0.859272466,0 Z" id="path-1"></path>
    </defs>
    <g id="Symbols" stroke="none" stroke-width="1" fill="none" fill-rule="evenodd">
        <g id="Canada-Flag">
            <g transform="translate(1.000000, 3.000000)">
                <g>
                    <mask id="mask-2" fill="white">
                        <use xlink:href="#path-1"></use>
                    </mask>
                    <g id="Clip-2"></g>
                    <rect id="Rectangle" fill="#FFFFFF" mask="url(#mask-2)" x="3.74709938" y="0" width="10.4606524" height="13.8152417"></rect>
                    <polygon id="Fill-1" fill="#CD1F28" mask="url(#mask-2)" points="-0.53296043 13.7845405 4.23049964 13.7845405 4.23049964 -0.0287777463 -0.53296043 -0.0287777463"></polygon>
                    <polygon id="Fill-3" fill="#CD1F28" mask="url(#mask-2)" points="13.7573833 -0.0287777463 18.5208153 -0.0287777463 18.5208153 13.7845405 13.7574114 13.7845405"></polygon>
                    <path d="M5.65507762,6.6461313 L5.28514698,6.7758326 L7.00646892,8.3256869 C7.13665152,8.72399969 6.96125144,8.84141289 6.84947,9.05033933 L8.71816952,8.80699471 L8.66952987,10.7363412 L9.05657134,10.7249164 L8.97213919,8.81159915 L10.84269,9.03908723 C10.7269254,8.7882604 10.6238958,8.65510576 10.7309928,8.25405909 L12.4512207,6.78570336 L12.1501822,6.67390182 C11.9040387,6.4790477 12.2565499,5.73545951 12.3097057,5.26618081 C12.3097057,5.26618081 11.3052716,5.62054997 11.2394651,5.43510618 L10.9836721,4.93100639 L10.0698974,5.96081805 C9.97009357,5.98536546 9.92756894,5.94461617 9.90411868,5.85808149 L10.3262794,3.70605285 L9.65780681,4.09176098 C9.60184596,4.11633717 9.54588512,4.09515675 9.50902669,4.02824849 L8.86605201,2.70464483 L8.20307729,4.07924266 C8.15311926,4.12848138 8.10307708,4.13417938 8.06156227,4.10071086 L7.42503921,3.73437015 L7.80714379,5.86959259 C7.77676504,5.95431427 7.70397387,5.97817103 7.61833554,5.9322993 L6.74484145,4.91417141 C6.63059156,5.10200376 6.553144,5.40886087 6.40211984,5.47763968 C6.25106764,5.54204428 5.74520404,5.34750672 5.40615705,5.27159102 C5.52194972,5.700437 5.88413841,6.41285888 5.65490932,6.64636152 L5.65507762,6.6461313 Z" id="Fill-4" fill="#CD1F28" mask="url(#mask-2)"></path>
                </g>
            </g>
        </g>
    </g>
</svg>