<?xml version="1.0" encoding="UTF-8"?> <svg xmlns="http://www.w3.org/2000/svg" xmlns:xlink="http://www.w3.org/1999/xlink" width="33px" height="33px" viewBox="0 0 33 33"><!-- Generator: Sketch 43.1 (39012) - http://www.bohemiancoding.com/sketch --><title>Order Icon</title><desc>Created with Sketch.</desc><defs><rect id="path-1" x="0" y="0" width="33" height="33"></rect></defs><g id="Symbols" stroke="none" stroke-width="1" fill="none" fill-rule="evenodd"><g id="Order-Icon"><g id="Order-Icon---whitebag"><mask id="mask-2" fill="white"><use xlink:href="#path-1"></use></mask><use id="Mask" fill-opacity="0" fill="#D8D8D8" xlink:href="#path-1"></use><g id="White-bag" mask="url(#mask-2)"><g transform="translate(8.000000, 7.000000)"><path d="M15.1111111,0 L15.1111111,1.82608696 L14.1666667,2.73913043 L13.2222222,7.30434783 L12.2777778,17.3478261 L12.2777778,20.0869565 L8.5,20.0869565 L0,19.173913 C0,19.173913 1.88888889,11.8695652 1.88888889,10.9565217 C1.88888889,10.0434783 2.83333333,4.56521739 2.83333333,4.56521739 L2.83333333,2.73913043 L4.72222222,1.82608696 L15.1111111,0 Z" id="Path-8"></path><g id="Page-1" stroke-width="1" fill-rule="evenodd"><path d="M14.7465957,-3.5e-05 C14.6004681,-3.5e-05 14.4456596,0.019565 14.2886809,0.047915 L13.460383,0.187215 C13.460383,0.187215 4.80702128,1.714265 3.94002128,1.860565 C3.07302128,2.006865 2.99417021,2.240665 2.71819149,2.914065 C2.47657447,3.503115 2.23531915,4.271365 2.17889362,4.454065 C2.17057447,4.480665 2.16442553,4.507615 2.16044681,4.535265 L0.00578723404,19.327665 C-0.0405106383,19.645465 0.200021277,19.935265 0.530617021,19.959415 L12.1332979,20.819015 C12.1864681,20.822865 12.2392766,20.819715 12.2917234,20.809565 L16.550766,19.972715 C17.1128511,19.900615 16.8994468,18.962615 16.8994468,18.962615 L14.5802128,3.294165 C14.5802128,3.294165 14.3751277,2.466765 14.7650426,2.466415 C14.7708298,2.466415 14.7769787,2.466765 14.7831277,2.467115 C14.8196596,2.469565 14.8554681,2.470615 14.8898298,2.470615 C15.7318723,2.470615 15.9337021,1.818215 15.796617,1.212015 C15.7344043,0.935865 15.6374681,0.634865 15.513766,0.401765 C15.3513617,0.095515 15.0706809,-3.5e-05 14.7465957,-3.5e-05 M14.7465957,0.699965 C14.8178511,0.699965 14.8536596,0.708365 14.8608936,0.708365 C14.861617,0.708365 14.8619787,0.708015 14.8619787,0.708015 C14.8637872,0.710465 14.8666809,0.715015 14.8702979,0.721665 C14.9534894,0.879165 15.0337872,1.112615 15.0898511,1.361465 C15.1375957,1.571465 15.099617,1.703765 15.0735745,1.734915 C15.062,1.748565 15.0019574,1.770615 14.8898298,1.770615 C14.8702979,1.770615 14.8496809,1.769915 14.8287021,1.768515 C14.8135106,1.767465 14.7805957,1.766415 14.7650426,1.766415 C14.4785745,1.766415 14.2138085,1.889965 14.0387447,2.105215 C13.7179149,2.498615 13.7895319,3.086265 13.8687447,3.423665 L16.1836383,19.061665 C16.1858085,19.076015 16.1890638,19.094915 16.1923191,19.109265 C16.2060638,19.174015 16.214383,19.255215 16.2158298,19.324515 L12.2465106,20.103965 C12.1940638,20.114465 12.1412553,20.117615 12.0880851,20.113765 L1.35493617,19.318565 C1.02434043,19.294065 0.783085106,19.004615 0.829382979,18.686815 L2.86902128,4.686115 C2.8733617,4.658115 2.87878723,4.632215 2.88746809,4.604915 C2.96161702,4.367615 3.1782766,3.690365 3.39059574,3.172015 L3.40759574,3.130715 C3.61448936,2.626015 3.61448936,2.626015 4.06444681,2.550065 C4.92421277,2.405165 13.2368511,0.938315 13.5848085,0.876715 L14.4210638,0.736015 C14.5552553,0.711515 14.6615957,0.699965 14.7465957,0.699965" id="Fill-1" stroke="#FFFFFF" stroke-width="0.5" fill="#FFFFFF"></path><path d="M14.1666667,2.73913043 L12.2777778,20.0869565" id="Path-2" stroke="#FFFFFF" stroke-width="1.116" stroke-linecap="round"></path><path d="M10.6276404,8.073205 C10.5321511,8.347955 10.4370234,8.623405 10.341534,8.898855 C10.1664702,9.463055 9.9270234,10.276455 9.5859383,11.712855 L9.36747021,12.660305 C9.34034255,12.779655 9.31321489,12.901805 9.28536383,13.027805 C9.19349149,13.445005 9.02421489,14.092505 8.96995957,14.327705 C8.88676809,14.699055 8.7880234,14.917105 8.40353404,15.035055 C8.40353404,15.035055 8.20315106,15.103305 7.96081064,15.069705 C7.43706596,14.998655 7.40885319,14.588805 7.31951277,14.258055 C7.18242766,13.752305 7.03087447,12.513305 7.00664043,11.793355 C7.00410851,11.719505 7.0019383,11.646005 6.99976809,11.572505 C6.99832128,11.548355 6.99759787,11.524205 6.99615106,11.500055 C6.99470426,11.462255 6.99144894,11.445805 6.98819362,11.434605 C6.98240638,11.412555 6.9675766,11.404855 6.94261915,11.411155 C6.9180234,11.417455 6.89921489,11.445455 6.86159787,11.548705 C6.7986617,11.752405 6.68147021,12.145805 6.59212979,12.496855 C6.43623617,13.086955 6.2535766,13.767355 6.17400213,14.150605 C6.08321489,14.510405 5.99278936,14.869855 5.90272553,15.228955 C5.83183191,15.552005 5.50195957,15.758855 5.28385319,15.816605 C5.04549149,15.879255 4.90659787,15.890805 4.7250234,15.847405 C4.48051277,15.789305 4.33691702,15.489005 4.26349149,15.218805 C4.22189574,15.067955 4.14485319,14.787255 4.11374681,14.442855 C4.05189574,13.757555 4.02404468,13.276655 4.03706596,12.582955 C4.05189574,11.780405 4.12242766,10.605805 4.16981064,9.954105 C4.17776809,9.738155 4.18500213,9.522205 4.19259787,9.305905 C4.19115106,9.065805 4.17523617,8.916355 4.14412979,8.809255 C4.11736383,8.717905 4.08372553,8.666805 4.01898085,8.576855 C3.99727872,8.546405 3.97485319,8.526455 3.96906596,8.505105 C3.93036383,8.365455 4.24432128,8.107505 4.66534255,8.010205 C4.92649149,7.950005 5.15400213,7.936355 5.34136383,8.094905 C5.46181064,8.226155 5.48098085,8.354255 5.47627872,8.620605 C5.47410851,8.709855 5.46361915,8.842505 5.45312979,8.969205 C5.42383191,9.387105 5.3200234,10.118955 5.29072553,10.537205 C5.23900213,11.116455 5.18474681,11.765005 5.17570426,12.361055 C5.17100213,12.653655 5.17208723,13.208755 5.19559787,13.295555 C5.20789574,13.338955 5.22851277,13.368355 5.26540638,13.358205 C5.3019383,13.347355 5.32074681,13.319005 5.37427872,13.175155 C5.38910851,13.116705 5.4039383,13.057905 5.41840638,12.999455 C5.43359787,12.940655 5.44806596,12.882205 5.46289574,12.823405 C5.46289574,12.823405 5.70342766,11.974305 5.90742766,11.281305 C6.12625745,10.612105 6.34544894,9.922255 6.49085319,9.533755 C6.70678936,8.960455 6.8156617,8.540455 7.19689574,8.442805 C7.57812979,8.345155 7.93006596,8.506855 8.00421489,8.782305 C8.04291702,8.925455 8.04436383,9.014705 8.03315106,9.572605 C8.01398085,10.548755 8.08415106,11.319455 8.11417234,12.063555 C8.13587447,12.386955 8.16481064,12.638605 8.19772553,12.760055 C8.21255532,12.815355 8.2433,12.831805 8.26825745,12.826205 C8.31708723,12.815005 8.33264043,12.776155 8.3619383,12.640005 C8.37459787,12.574555 8.38761915,12.509105 8.40027872,12.443655 C8.48636383,12.007205 8.57244894,11.571105 8.65925745,11.135005 C8.85964043,10.178455 9.00070426,9.613555 9.25027872,8.727005 C9.54687447,7.674205 9.76823617,7.196105 10.150917,7.110005 C10.511534,7.029505 10.7169809,7.318255 10.7394064,7.605605 C10.7473638,7.703605 10.7032362,7.917105 10.6276404,8.073205" id="Fill-3" fill="#FFFFFF"></path></g></g></g></g></g></g></svg> 