<?xml version="1.0" encoding="UTF-8"?> <svg xmlns="http://www.w3.org/2000/svg" xmlns:xlink="http://www.w3.org/1999/xlink" width="28px" height="28px" viewBox="0 0 28 28"><!-- Generator: Sketch 47 (45396) - http://www.bohemiancoding.com/sketch --><title>insta</title><desc>Created with Sketch.</desc><defs><rect id="path-1" x="0" y="0" width="36" height="36"></rect><polygon id="path-3" points="0 27.8293983 0 0.00877951257 27.9911667 0.00877951257 27.9911667 27.8293983"></polygon></defs><g id="allmodulestack" stroke="none" stroke-width="1" fill="none" fill-rule="evenodd"><g id="desktop-1440w-allmodules" transform="translate(-1261.000000, -9402.000000)"><g id="footer" transform="translate(0.000000, 9362.000000)"><g id="insta" transform="translate(1257.000000, 36.000000)"><mask id="mask-2" fill="white"><use xlink:href="#path-1"></use></mask><use id="Mask" fill-opacity="0" fill="#D8D8D8" xlink:href="#path-1"></use><g id="Page-1" mask="url(#mask-2)"><g transform="translate(4.000000, 4.000000)"><g id="Group-3" stroke-width="1" fill="none" transform="translate(0.000000, 0.046438)"><mask id="mask-4" fill="white"><use xlink:href="#path-3"></use></mask><g id="Clip-2"></g><path d="M13.9955833,0.00877951257 C10.1945833,0.00877951257 9.71797222,0.02479246 8.22525,0.0924885758 C6.73552778,0.16001904 5.71819444,0.3951885 4.82791667,0.739025133 C3.90758333,1.09451257 3.12708333,1.57015232 2.34902778,2.34346725 C1.57097222,3.1168374 1.09241667,3.89258187 0.73475,4.80730769 C0.38875,5.69210586 0.152194444,6.70329589 0.0841944444,8.18388614 C0.0160833333,9.66756855 -2.77777781e-05,10.1412757 -2.77777781e-05,13.9191165 C-2.77777781e-05,17.6969021 0.0160833333,18.1706093 0.0841944444,19.6542917 C0.152194444,21.1348819 0.38875,22.146072 0.73475,23.0308701 C1.09241667,23.945596 1.57097222,24.7213404 2.34902778,25.4947106 C3.12708333,26.2680255 3.90758333,26.7436653 4.82791667,27.0991527 C5.71819444,27.4429893 6.73552778,27.6781588 8.22525,27.7456893 C9.71797222,27.8133854 10.1945833,27.8293983 13.9955833,27.8293983 C17.7965833,27.8293983 18.2731944,27.8133854 19.7659167,27.7456893 C21.2556389,27.6781588 22.2729722,27.4429893 23.16325,27.0991527 C24.0835833,26.7436653 24.8640833,26.2680255 25.6421389,25.4947106 C26.4201944,24.7213404 26.89875,23.945596 27.2564167,23.0308701 C27.6024167,22.146072 27.8389722,21.1348819 27.9069722,19.6542917 C27.9750833,18.1706093 27.9911944,17.6969021 27.9911944,13.9191165 C27.9911944,10.1412757 27.9750833,9.66756855 27.9069722,8.18388614 C27.8389722,6.70329589 27.6024167,5.69210586 27.2564167,4.80730769 C26.89875,3.89258187 26.4201944,3.1168374 25.6421389,2.34346725 C24.8640833,1.57015232 24.0835833,1.09451257 23.16325,0.739025133 C22.2729722,0.3951885 21.2556389,0.16001904 19.7659167,0.0924885758 C18.2731944,0.02479246 17.7965833,0.00877951257 13.9955833,0.00877951257 M13.9955833,2.51513709 C17.7325833,2.51513709 18.1751944,2.52932788 19.6509722,2.59625095 C21.0155278,2.65809406 21.7566389,2.88470487 22.2498056,3.07520373 C22.9030278,3.3275457 23.36925,3.62897563 23.8590278,4.11576923 C24.34875,4.60250762 24.6520833,5.06588919 24.9059722,5.7151866 C25.0975833,6.20534844 25.3255833,6.9418888 25.3878611,8.29813024 C25.4551944,9.76491622 25.4694167,10.2048858 25.4694167,13.9191165 C25.4694167,17.6332921 25.4551944,18.0732616 25.3878611,19.5400476 C25.3255833,20.896289 25.0975833,21.6328294 24.9059722,22.1229912 C24.6520833,22.7722887 24.34875,23.2356702 23.8590278,23.7224086 C23.36925,24.2092022 22.9030278,24.5106321 22.2498056,24.7629741 C21.7566389,24.953473 21.0155278,25.1800838 19.6509722,25.2419269 C18.1754167,25.30885 17.7328056,25.3230407 13.9955833,25.3230407 C10.2583611,25.3230407 9.81575,25.30885 8.34019444,25.2419269 C6.97563889,25.1800838 6.23452778,24.953473 5.74136111,24.7629741 C5.08813889,24.5106321 4.62191667,24.2092022 4.13213889,23.7224086 C3.64241667,23.2356702 3.33908333,22.7722887 3.08519444,22.1229912 C2.89358333,21.6328294 2.66558333,20.896289 2.60330556,19.5400476 C2.53597222,18.0732616 2.52175,17.6332921 2.52175,13.9191165 C2.52175,10.2048858 2.53597222,9.76491622 2.60330556,8.29813024 C2.66558333,6.9418888 2.89358333,6.20534844 3.08519444,5.7151866 C3.33908333,5.06588919 3.64241667,4.60250762 4.13213889,4.11576923 C4.62191667,3.62897563 5.08813889,3.3275457 5.74136111,3.07520373 C6.23452778,2.88470487 6.97563889,2.65809406 8.34013889,2.59625095 C9.81597222,2.52932788 10.2585833,2.51513709 13.9955833,2.51513709" id="Fill-1" fill="#EFEFEF" mask="url(#mask-4)"></path></g><path d="M13.9955833,18.6022907 C11.4190833,18.6022907 9.33036111,16.5263502 9.33036111,13.9655486 C9.33036111,11.4046917 11.4190833,9.32875114 13.9955833,9.32875114 C16.5720833,9.32875114 18.66075,11.4046917 18.66075,13.9655486 C18.66075,16.5263502 16.5720833,18.6022907 13.9955833,18.6022907 M6.80863889,13.9655486 C6.80863889,17.9105866 10.0263611,21.1086483 13.9955833,21.1086483 C17.9648056,21.1086483 21.1825278,17.9105866 21.1825278,13.9655486 C21.1825278,10.0204553 17.9648056,6.82239356 13.9955833,6.82239356 C10.0263611,6.82239356 6.80863889,10.0204553 6.80863889,13.9655486 Z" id="Fill-4" fill="#EFEFEF"></path><path d="M23.1459333,6.54016813 C23.1459333,7.46207216 22.3939889,8.20937986 21.4664889,8.20937986 C20.5389333,8.20937986 19.7869889,7.46207216 19.7869889,6.54016813 C19.7869889,5.61826409 20.5389333,4.8709564 21.4664889,4.8709564 C22.3939889,4.8709564 23.1459333,5.61826409 23.1459333,6.54016813" id="Fill-6" fill="#EFEFEF"></path></g></g></g></g></g></g></svg> 