<?xml version="1.0" encoding="UTF-8"?> <svg xmlns="http://www.w3.org/2000/svg" xmlns:xlink="http://www.w3.org/1999/xlink" width="33px" height="33px" viewBox="0 0 33 33"><!-- Generator: Sketch 43.1 (39012) - http://www.bohemiancoding.com/sketch --><title>Find icon</title><desc>Created with Sketch.</desc><defs><rect id="path-1" x="0" y="0" width="33" height="33"></rect></defs><g id="Symbols" stroke="none" stroke-width="1" fill="none" fill-rule="evenodd"><g id="Find-icon"><mask id="mask-2" fill="white"><use xlink:href="#path-1"></use></mask><use id="Mask" fill-opacity="0" fill="#D8D8D8" xlink:href="#path-1"></use><g id="Find" mask="url(#mask-2)"><g transform="translate(9.000000, 6.000000)"><path d="M7.95885714,0.5295 L7.9352381,0.5295 L7.91161905,0.5295 C4.7032381,0.54975 1.04304762,2.676 0.571428571,7.03575 L0.571428571,7.9305 C0.571428571,7.968 0.583619048,8.304 0.601904762,8.472 C0.868571429,10.55925 2.16380952,12.7875 3.48952381,14.82975 C4.70628571,16.704 7.48571429,20.4375 7.91466667,20.4375 L7.95580952,20.4375 C8.42514286,20.4375 11.1641905,16.704 12.3809524,14.82975 C13.7066667,12.7875 15.0019048,10.55925 15.2685714,8.472 C15.2860952,8.304 15.2998095,7.968 15.2998095,7.9305 L15.2998095,7.03575 C14.8274286,2.676 11.168,0.54975 7.95885714,0.5295" id="Stroke-1" stroke="#6E4D40" stroke-width="1.125" fill="none"></path><path d="M11.4210286,5.68335 C11.3265524,5.95785 11.2328381,6.23385 11.1391238,6.5091 C10.9661714,7.0731 10.729981,7.88685 10.393981,9.3231 L10.1783619,10.27035 C10.1516952,10.3896 10.1250286,10.51185 10.0976,10.63785 C10.0069333,11.05485 9.84007619,11.70285 9.78674286,11.9376 C9.70445714,12.30885 9.60693333,12.5271 9.22826667,12.64485 C9.22826667,12.64485 9.03017143,12.7131 8.79169524,12.6801 C8.27512381,12.60885 8.24769524,12.1986 8.15931429,11.86785 C8.02369524,11.36235 7.8743619,10.12335 7.85074286,9.40335 C7.84845714,9.32985 7.84617143,9.25635 7.84388571,9.18285 C7.8423619,9.15885 7.8416,9.1341 7.84007619,9.1101 C7.83931429,9.0726 7.83550476,9.0561 7.83245714,9.04485 C7.82712381,9.02235 7.81188571,9.01485 7.78750476,9.0216 C7.76312381,9.0276 7.7448381,9.05535 7.70750476,9.15885 C7.64579048,9.36285 7.52998095,9.75585 7.4423619,10.10685 C7.28845714,10.6971 7.10788571,11.37735 7.02940952,11.7606 C6.94026667,12.1206 6.85112381,12.47985 6.76198095,12.8391 C6.69264762,13.16235 6.36731429,13.36935 6.15245714,13.4271 C5.91702857,13.48935 5.77988571,13.5006 5.6008381,13.45785 C5.36007619,13.39935 5.2183619,13.09935 5.14598095,12.8286 C5.1048381,12.67785 5.02940952,12.39735 4.99817143,12.0531 C4.93721905,11.3676 4.90979048,10.88685 4.92274286,10.1931 C4.93721905,9.3906 5.00655238,8.2161 5.05379048,7.56435 C5.06140952,7.34835 5.06826667,7.13235 5.07588571,6.91635 C5.0743619,6.6756 5.05912381,6.52635 5.02864762,6.4191 C5.00198095,6.32835 4.96845714,6.2766 4.90521905,6.18735 C4.88388571,6.1566 4.86179048,6.13635 4.85569524,6.11535 C4.8176,5.97585 5.12693333,5.71785 5.54217143,5.62035 C5.79969524,5.56035 6.02369524,5.54685 6.2088381,5.7051 C6.32769524,5.83635 6.34674286,5.9646 6.34217143,6.23085 C6.33988571,6.3201 6.32921905,6.45285 6.31931429,6.5796 C6.2903619,6.99735 6.18750476,7.72935 6.15855238,8.1471 C6.10750476,8.72685 6.05417143,9.37485 6.04579048,9.9711 C6.04045714,10.2636 6.04198095,10.8186 6.0648381,10.9056 C6.07702857,10.9491 6.0976,10.97835 6.13417143,10.9686 C6.16998095,10.95735 6.18826667,10.92885 6.2416,10.7856 C6.25607619,10.7271 6.27055238,10.66785 6.28502857,10.60935 C6.29950476,10.55085 6.31398095,10.49235 6.32845714,10.43385 C6.32845714,10.43385 6.56540952,9.5841 6.76655238,8.8911 C6.98293333,8.2221 7.19855238,7.5321 7.34179048,7.1436 C7.55512381,6.5706 7.66255238,6.1506 8.03817143,6.0531 C8.41455238,5.9556 8.76121905,6.11685 8.8343619,6.3921 C8.87245714,6.53535 8.87398095,6.6246 8.86255238,7.1826 C8.84426667,8.1591 8.9128381,8.92935 8.94255238,9.67335 C8.96388571,9.99735 8.9928381,10.2486 9.0248381,10.3701 C9.04007619,10.4256 9.06979048,10.4421 9.09493333,10.4361 C9.14293333,10.42485 9.15817143,10.3866 9.18712381,10.2501 C9.19931429,10.18485 9.21226667,10.1196 9.22521905,10.0536 C9.30979048,9.6171 9.3943619,9.18135 9.48045714,8.74485 C9.67779048,7.7886 9.81721905,7.22385 10.0633143,6.33735 C10.3551238,5.28435 10.5737905,4.8066 10.9509333,4.72035 C11.3067429,4.63935 11.5094095,4.9281 11.5315048,5.2161 C11.5391238,5.3136 11.4956952,5.52735 11.4210286,5.68335" id="Fill-3" stroke="none" fill="#6E4D40" fill-rule="evenodd"></path></g></g></g></g></svg> 