<?xml version="1.0" encoding="UTF-8"?> <svg xmlns="http://www.w3.org/2000/svg" xmlns:xlink="http://www.w3.org/1999/xlink" width="30px" height="25px" viewBox="0 0 30 25"><!-- Generator: Sketch 47 (45396) - http://www.bohemiancoding.com/sketch --><title>twitter</title><desc>Created with Sketch.</desc><defs><rect id="path-1" x="0" y="0" width="36" height="36"></rect></defs><g id="allmodulestack" stroke="none" stroke-width="1" fill="none" fill-rule="evenodd"><g id="desktop-1440w-allmodules" transform="translate(-1160.000000, -9404.000000)"><g id="footer" transform="translate(0.000000, 9362.000000)"><g id="twitter" transform="translate(1157.000000, 36.000000)"><mask id="mask-2" fill="white"><use xlink:href="#path-1"></use></mask><use id="Mask" fill-opacity="0" fill="#D8D8D8" xlink:href="#path-1"></use><path d="M12.4237695,31 C23.7442977,31 29.9387755,21.378937 29.9387755,13.0497047 C29.9387755,12.7790354 29.9387755,12.5083661 29.9267707,12.2376969 C31.1272509,11.3518701 32.1716687,10.2322835 33,8.96505906 C31.8955582,9.46948819 30.7070828,9.80167323 29.4585834,9.96161417 C30.7310924,9.18651575 31.7034814,7.94389764 32.1716687,6.46751969 C30.9831933,7.19340551 29.6626651,7.7101378 28.2581032,7.99311024 C27.1296519,6.76279528 25.5330132,6 23.7683073,6 C20.3709484,6 17.6098439,8.82972441 17.6098439,12.3115157 C17.6098439,12.8036417 17.6698679,13.2834646 17.7659064,13.7509843 C12.6518607,13.4926181 8.11404562,10.9704724 5.07683073,7.15649606 C4.54861945,8.09153543 4.2484994,9.1742126 4.2484994,10.3307087 C4.2484994,12.5206693 5.34093637,14.4522638 6.98559424,15.5841535 C5.97719088,15.5472441 5.02881152,15.2642717 4.20048019,14.796752 L4.20048019,14.882874 C4.20048019,17.9340551 6.32533013,20.4931102 9.13445378,21.0713583 C8.6182473,21.2189961 8.07803121,21.292815 7.51380552,21.292815 C7.11764706,21.292815 6.7334934,21.2559055 6.36134454,21.1820866 C7.14165666,23.6919291 9.42256903,25.5127953 12.1116447,25.5620079 C9.99879952,27.2598425 7.3457383,28.2687008 4.46458583,28.2687008 C3.97238896,28.2687008 3.48019208,28.2440945 3,28.1825787 C5.71308523,29.9542323 8.95438175,31 12.4237695,31" id="Shape" fill="#EFEFEF" fill-rule="nonzero" mask="url(#mask-2)"></path></g></g></g></g></svg> 