<?xml version="1.0" encoding="UTF-8"?>
<svg width="20px" height="20px" viewBox="0 0 20 20" version="1.1" xmlns="http://www.w3.org/2000/svg" xmlns:xlink="http://www.w3.org/1999/xlink">
    <!-- Generator: Sketch 43.1 (39012) - http://www.bohemiancoding.com/sketch -->
    <title>US Flag </title>
    <desc>Created with Sketch.</desc>
    <defs>
        <path d="M0.864956053,0.0283095111 C0.400674051,0.0283095111 0.0243223356,0.410473686 0.0243223356,0.881891062 L0.0243223356,12.831606 C0.0243223356,13.3030234 0.400674051,13.6851591 0.864956053,13.6851591 L17.1171799,13.6851591 C17.5814619,13.6851591 17.9578416,13.3030234 17.9578416,12.831606 L17.9578416,0.881891062 C17.9578416,0.410473686 17.5814619,0.0283095111 17.1171799,0.0283095111 L0.864956053,0.0283095111 L0.864956053,0.0283095111 Z" id="path-1"></path>
        <polygon id="path-3" points="0.0178214348 0.0152956715 0.0178214348 1.13313726 7.43222203 1.13313726 7.43222203 0.0152956715 0.0178214348 0.0152956715"></polygon>
        <polygon id="path-5" points="0.0178214348 0.0144307377 0.0178214348 1.13224388 8.68371268 1.13224388 8.68371268 0.0144307377 0.0178214348 0.0144307377"></polygon>
        <polygon id="path-7" points="0.0178214348 0.0135288166 0.0178214348 1.13137041 7.43222203 1.13137041 7.43222203 0.0135288166 0.0178214348 0.0135288166"></polygon>
        <polygon id="path-9" points="0.0178214348 0.0126610376 0.0178214348 1.13047418 8.68371268 1.13047418 8.68371268 0.0126610376 0.0178214348 0.0126610376"></polygon>
        <polygon id="path-11" points="0.0178214348 0.0117591165 0.0178214348 1.12960071 7.43222203 1.12960071 7.43222203 0.0117591165 0.0178214348 0.0117591165"></polygon>
        <polygon id="path-13" points="0.0178214348 0.0108941827 0.0178214348 1.12870732 8.68371268 1.12870732 8.68371268 0.0108941827 0.0178214348 0.0108941827"></polygon>
    </defs>
    <g id="Symbols" stroke="none" stroke-width="1" fill="none" fill-rule="evenodd">
        <g id="US-Flag-">
            <g id="US-Flag">
                <g transform="translate(1.000000, 3.000000)">
                    <g id="Group-11" transform="translate(0.000000, 0.010470)">
                        <mask id="mask-2" fill="white">
                            <use xlink:href="#path-1"></use>
                        </mask>
                        <g id="Clip-2"></g>
                        <polygon id="Fill-1" fill="#CD1F28" mask="url(#mask-2)" points="0.0243223356 1.07883421 25.5798395 1.07883421 25.5798395 0.0283095111 0.0243223356 0.0283095111"></polygon>
                        <polygon id="Fill-3" fill="#CD1F28" mask="url(#mask-2)" points="0.0243223356 3.17991207 25.5798395 3.17991207 25.5798395 2.12938737 0.0243223356 2.12938737"></polygon>
                        <polygon id="Fill-4" fill="#CD1F28" mask="url(#mask-2)" points="0.0243223356 5.28098993 25.5798395 5.28098993 25.5798395 4.23046523 0.0243223356 4.23046523"></polygon>
                        <polygon id="Fill-5" fill="#CD1F28" mask="url(#mask-2)" points="0.0243223356 7.38206779 25.5798395 7.38206779 25.5798395 6.33154309 0.0243223356 6.33154309"></polygon>
                        <polygon id="Fill-6" fill="#CD1F28" mask="url(#mask-2)" points="0.0243223356 9.48314565 25.5798395 9.48314565 25.5798395 8.43262094 0.0243223356 8.43262094"></polygon>
                        <polygon id="Fill-7" fill="#CD1F28" mask="url(#mask-2)" points="0.0243223356 11.5842235 25.5798395 11.5842235 25.5798395 10.5336988 0.0243223356 10.5336988"></polygon>
                        <polygon id="Fill-8" fill="#CD1F28" mask="url(#mask-2)" points="0.0243223356 13.6853014 25.5798395 13.6853014 25.5798395 12.6347767 0.0243223356 12.6347767"></polygon>
                        <path d="M0.0243223356,12.6347482 L25.5798395,12.6347482 L25.5798395,11.5842235 L0.0243223356,11.5842235 L0.0243223356,12.6347482 Z M0.0243223356,10.5336703 L25.5798395,10.5336703 L25.5798395,9.48314565 L0.0243223356,9.48314565 L0.0243223356,10.5336703 Z M0.0243223356,8.43259249 L25.5798395,8.43259249 L25.5798395,7.38206779 L0.0243223356,7.38206779 L0.0243223356,8.43259249 Z M0.0243223356,6.33151463 L25.5798395,6.33151463 L25.5798395,5.28098993 L0.0243223356,5.28098993 L0.0243223356,6.33151463 Z M0.0243223356,4.23046523 L25.5798395,4.23046523 L25.5798395,3.17994052 L0.0243223356,3.17994052 L0.0243223356,4.23046523 Z M0.0243223356,2.12938737 L25.5798395,2.12938737 L25.5798395,1.07886267 L0.0243223356,1.07886267 L0.0243223356,2.12938737 Z" id="Fill-9" fill="#FFFFFF" mask="url(#mask-2)"></path>
                        <polygon id="Fill-10" fill="#037EAA" mask="url(#mask-2)" points="0.0364554822 7.37916571 10.2585615 7.37916571 10.2585615 0.0255496894 0.0364554822 0.0255496894"></polygon>
                    </g>
                    <g id="Group-30" transform="translate(0.784591, 0.408795)">
                        <g id="Group-14">
                            <mask id="mask-4" fill="white">
                                <use xlink:href="#path-3"></use>
                            </mask>
                            <g id="Clip-13"></g>
                            <path d="M6.85347374,0.0152956715 L6.99007672,0.442271384 L7.43222203,0.442271384 L7.07453238,0.70616155 L7.21113536,1.13313726 L6.85347374,0.869275548 L6.49572805,1.13313726 L6.63238707,0.70616155 L6.27464138,0.442271384 L6.71681472,0.442271384 L6.85347374,0.0152956715 Z M4.35076706,0.0152956715 L4.48739806,0.442271384 L4.92957139,0.442271384 L4.5718257,0.70616155 L4.70848472,1.13313726 L4.35076706,0.869275548 L3.99304939,1.13313726 L4.12973643,0.70616155 L3.77199074,0.442271384 L4.21416408,0.442271384 L4.35076706,0.0152956715 Z M1.84797631,0.0152956715 L1.98457929,0.442271384 L2.42675262,0.442271384 L2.06900693,0.70616155 L2.20566596,1.13313726 L1.84792027,0.869275548 L1.49025864,1.13313726 L1.62686162,0.70616155 L1.26917197,0.442271384 L1.71131729,0.442271384 L1.84797631,0.0152956715 Z M-0.654842457,0.0152956715 L-0.518239478,0.442271384 L-0.0760941641,0.442271384 L-0.433811832,0.70616155 L-0.297180832,1.13313726 L-0.654842457,0.869275548 L-1.01258815,1.13313726 L-0.875929125,0.70616155 L-1.23367481,0.442271384 L-0.791501479,0.442271384 L-0.654842457,0.0152956715 Z M-3.15754914,0.0152956715 L-3.02094616,0.442271384 L-2.57877283,0.442271384 L-2.93649049,0.70616155 L-2.79980345,1.13313726 L-3.15754914,0.869275548 L-3.51523879,1.13313726 L-3.37863581,0.70616155 L-3.73632545,0.442271384 L-3.29415212,0.442271384 L-3.15754914,0.0152956715 Z" id="Fill-12" fill="#FFFFFF" mask="url(#mask-4)"></path>
                        </g>
                        <g id="Group-17" transform="translate(0.000000, 1.081167)">
                            <mask id="mask-6" fill="white">
                                <use xlink:href="#path-5"></use>
                            </mask>
                            <g id="Clip-16"></g>
                            <path d="M8.10493636,0.0144307377 L8.24153934,0.441377998 L8.68371268,0.441377998 L8.32599501,0.705296616 L8.46262601,1.13224388 L8.10493636,0.86835371 L7.74719067,1.13224388 L7.88387771,0.705296616 L7.52616005,0.441377998 L7.96833338,0.441377998 L8.10493636,0.0144307377 Z M5.60211759,0.0144307377 L5.73874859,0.441377998 L6.18092193,0.441377998 L5.82317624,0.705296616 L5.95983526,1.13224388 L5.60208957,0.86835371 L5.24442795,1.13224388 L5.38103093,0.705296616 L5.02334128,0.441377998 L5.46548659,0.441377998 L5.60211759,0.0144307377 Z M3.09929883,0.0144307377 L3.23592983,0.441377998 L3.67804712,0.441377998 L3.32035747,0.705296616 L3.45696045,1.13224388 L3.09929883,0.86835371 L2.74158116,1.13224388 L2.87821216,0.705296616 L2.52049449,0.441377998 L2.96266783,0.441377998 L3.09929883,0.0144307377 Z M0.596620166,0.0144307377 L0.733223145,0.441377998 L1.17539648,0.441377998 L0.817650792,0.705296616 L0.954309813,1.13224388 L0.596620166,0.86835371 L0.238902498,1.13224388 L0.375533498,0.705296616 L0.0178158306,0.441377998 L0.459989166,0.441377998 L0.596620166,0.0144307377 Z M-1.90622662,0.0144307377 L-1.76959562,0.441377998 L-1.32742229,0.441377998 L-1.68513995,0.705296616 L-1.54850895,1.13224388 L-1.90622662,0.86835371 L-2.26388825,1.13224388 L-2.12728527,0.705296616 L-2.48497492,0.441377998 L-2.04285762,0.441377998 L-1.90622662,0.0144307377 Z M-4.40896133,0.0144307377 L-4.27235835,0.441377998 L-3.83018501,0.441377998 L-4.1879307,0.705296616 L-4.05127168,1.13224388 L-4.40901737,0.86835371 L-4.76667899,1.13224388 L-4.63004799,0.705296616 L-4.98776566,0.441377998 L-4.54562035,0.441377998 L-4.40896133,0.0144307377 Z" id="Fill-15" fill="#FFFFFF" mask="url(#mask-6)"></path>
                        </g>
                        <g id="Group-20" transform="translate(0.000000, 2.162335)">
                            <mask id="mask-8" fill="white">
                                <use xlink:href="#path-7"></use>
                            </mask>
                            <g id="Clip-19"></g>
                            <path d="M6.85347374,0.0135288166 L6.99007672,0.440504529 L7.43222203,0.440504529 L7.07453238,0.704394695 L7.21113536,1.13137041 L6.85347374,0.867508693 L6.49572805,1.13137041 L6.63238707,0.704394695 L6.27464138,0.440504529 L6.71681472,0.440504529 L6.85347374,0.0135288166 Z M4.35076706,0.0135288166 L4.48739806,0.440504529 L4.92957139,0.440504529 L4.5718257,0.704394695 L4.70848472,1.13137041 L4.35076706,0.867508693 L3.99304939,1.13137041 L4.12973643,0.704394695 L3.77199074,0.440504529 L4.21416408,0.440504529 L4.35076706,0.0135288166 Z M1.84797631,0.0135288166 L1.98457929,0.440504529 L2.42675262,0.440504529 L2.06900693,0.704394695 L2.20566596,1.13137041 L1.84792027,0.867508693 L1.49025864,1.13137041 L1.62686162,0.704394695 L1.26917197,0.440504529 L1.71131729,0.440504529 L1.84797631,0.0135288166 Z M-0.654842457,0.0135288166 L-0.518239478,0.440504529 L-0.0760941641,0.440504529 L-0.433811832,0.704394695 L-0.297180832,1.13137041 L-0.654842457,0.867508693 L-1.01258815,1.13137041 L-0.875929125,0.704394695 L-1.23367481,0.440504529 L-0.791501479,0.440504529 L-0.654842457,0.0135288166 Z M-3.15754914,0.0135288166 L-3.02094616,0.440504529 L-2.57877283,0.440504529 L-2.93649049,0.704394695 L-2.79980345,1.13137041 L-3.15754914,0.867508693 L-3.51523879,1.13137041 L-3.37863581,0.704394695 L-3.73632545,0.440504529 L-3.29415212,0.440504529 L-3.15754914,0.0135288166 Z" id="Fill-18" fill="#FFFFFF" mask="url(#mask-8)"></path>
                        </g>
                        <g id="Group-23" transform="translate(0.000000, 3.243502)">
                            <mask id="mask-10" fill="white">
                                <use xlink:href="#path-9"></use>
                            </mask>
                            <g id="Clip-22"></g>
                            <path d="M8.10493636,0.0126610376 L8.24153934,0.439608298 L8.68371268,0.439608298 L8.32599501,0.703526916 L8.46262601,1.13047418 L8.10493636,0.86658401 L7.74719067,1.13047418 L7.88387771,0.703526916 L7.52616005,0.439608298 L7.96833338,0.439608298 L8.10493636,0.0126610376 Z M5.60211759,0.0126610376 L5.73874859,0.439608298 L6.18092193,0.439608298 L5.82317624,0.703526916 L5.95983526,1.13047418 L5.60208957,0.86658401 L5.24442795,1.13047418 L5.38103093,0.703526916 L5.02334128,0.439608298 L5.46548659,0.439608298 L5.60211759,0.0126610376 Z M3.09929883,0.0126610376 L3.23592983,0.439608298 L3.67804712,0.439608298 L3.32035747,0.703526916 L3.45696045,1.13047418 L3.09929883,0.86658401 L2.74158116,1.13047418 L2.87821216,0.703526916 L2.52049449,0.439608298 L2.96266783,0.439608298 L3.09929883,0.0126610376 Z M0.596620166,0.0126610376 L0.733223145,0.439608298 L1.17539648,0.439608298 L0.817650792,0.703526916 L0.954309813,1.13047418 L0.596620166,0.86658401 L0.238902498,1.13047418 L0.375533498,0.703526916 L0.0178158306,0.439608298 L0.459989166,0.439608298 L0.596620166,0.0126610376 Z M-1.90622662,0.0126610376 L-1.76959562,0.439608298 L-1.32742229,0.439608298 L-1.68513995,0.703526916 L-1.54850895,1.13047418 L-1.90622662,0.86658401 L-2.26388825,1.13047418 L-2.12728527,0.703526916 L-2.48497492,0.439608298 L-2.04285762,0.439608298 L-1.90622662,0.0126610376 Z M-4.40896133,0.0126610376 L-4.27235835,0.439608298 L-3.83018501,0.439608298 L-4.1879307,0.703526916 L-4.05127168,1.13047418 L-4.40901737,0.86658401 L-4.76667899,1.13047418 L-4.63004799,0.703526916 L-4.98776566,0.439608298 L-4.54562035,0.439608298 L-4.40896133,0.0126610376 Z" id="Fill-21" fill="#FFFFFF" mask="url(#mask-10)"></path>
                        </g>
                        <g id="Group-26" transform="translate(0.000000, 4.324669)">
                            <mask id="mask-12" fill="white">
                                <use xlink:href="#path-11"></use>
                            </mask>
                            <g id="Clip-25"></g>
                            <path d="M6.85347374,0.0117591165 L6.99007672,0.438734829 L7.43222203,0.438734829 L7.07453238,0.702624995 L7.21113536,1.12960071 L6.85347374,0.865738993 L6.49572805,1.12960071 L6.63238707,0.702624995 L6.27464138,0.438734829 L6.71681472,0.438734829 L6.85347374,0.0117591165 Z M4.35076706,0.0117591165 L4.48739806,0.438734829 L4.92957139,0.438734829 L4.5718257,0.702624995 L4.70848472,1.12960071 L4.35076706,0.865738993 L3.99304939,1.12960071 L4.12973643,0.702624995 L3.77199074,0.438734829 L4.21416408,0.438734829 L4.35076706,0.0117591165 Z M1.84797631,0.0117591165 L1.98457929,0.438734829 L2.42675262,0.438734829 L2.06900693,0.702624995 L2.20566596,1.12960071 L1.84792027,0.865738993 L1.49025864,1.12960071 L1.62686162,0.702624995 L1.26917197,0.438734829 L1.71131729,0.438734829 L1.84797631,0.0117591165 Z M-0.654842457,0.0117591165 L-0.518239478,0.438734829 L-0.0760941641,0.438734829 L-0.433811832,0.702624995 L-0.297180832,1.12960071 L-0.654842457,0.865738993 L-1.01258815,1.12960071 L-0.875929125,0.702624995 L-1.23367481,0.438734829 L-0.791501479,0.438734829 L-0.654842457,0.0117591165 Z M-3.15754914,0.0117591165 L-3.02094616,0.438734829 L-2.57877283,0.438734829 L-2.93649049,0.702624995 L-2.79980345,1.12960071 L-3.15754914,0.865738993 L-3.51523879,1.12960071 L-3.37863581,0.702624995 L-3.73632545,0.438734829 L-3.29415212,0.438734829 L-3.15754914,0.0117591165 Z" id="Fill-24" fill="#FFFFFF" mask="url(#mask-12)"></path>
                        </g>
                        <g id="Group-29" transform="translate(0.000000, 5.405836)">
                            <mask id="mask-14" fill="white">
                                <use xlink:href="#path-13"></use>
                            </mask>
                            <g id="Clip-28"></g>
                            <path d="M8.10493636,0.0108941827 L8.24153934,0.437841443 L8.68371268,0.437841443 L8.32599501,0.701760061 L8.46262601,1.12870732 L8.10493636,0.864817155 L7.74719067,1.12870732 L7.88387771,0.701760061 L7.52616005,0.437841443 L7.96833338,0.437841443 L8.10493636,0.0108941827 Z M5.60211759,0.0108941827 L5.73874859,0.437841443 L6.18092193,0.437841443 L5.82317624,0.701760061 L5.95983526,1.12870732 L5.60208957,0.864817155 L5.24442795,1.12870732 L5.38103093,0.701760061 L5.02334128,0.437841443 L5.46548659,0.437841443 L5.60211759,0.0108941827 Z M3.09929883,0.0108941827 L3.23592983,0.437841443 L3.67804712,0.437841443 L3.32035747,0.701760061 L3.45696045,1.12870732 L3.09929883,0.864817155 L2.74158116,1.12870732 L2.87821216,0.701760061 L2.52049449,0.437841443 L2.96266783,0.437841443 L3.09929883,0.0108941827 Z M0.596620166,0.0108941827 L0.733223145,0.437841443 L1.17539648,0.437841443 L0.817650792,0.701760061 L0.954309813,1.12870732 L0.596620166,0.864817155 L0.238902498,1.12870732 L0.375533498,0.701760061 L0.0178158306,0.437841443 L0.459989166,0.437841443 L0.596620166,0.0108941827 Z M-1.90622662,0.0108941827 L-1.76959562,0.437841443 L-1.32742229,0.437841443 L-1.68513995,0.701760061 L-1.54850895,1.12870732 L-1.90622662,0.864817155 L-2.26388825,1.12870732 L-2.12728527,0.701760061 L-2.48497492,0.437841443 L-2.04285762,0.437841443 L-1.90622662,0.0108941827 Z M-4.40896133,0.0108941827 L-4.27235835,0.437841443 L-3.83018501,0.437841443 L-4.1879307,0.701760061 L-4.05127168,1.12870732 L-4.40901737,0.864817155 L-4.76667899,1.12870732 L-4.63004799,0.701760061 L-4.98776566,0.437841443 L-4.54562035,0.437841443 L-4.40896133,0.0108941827 Z" id="Fill-27" fill="#FFFFFF" mask="url(#mask-14)"></path>
                        </g>
                    </g>
                </g>
            </g>
        </g>
    </g>
</svg>