<?xml version="1.0" encoding="UTF-8"?> <svg xmlns="http://www.w3.org/2000/svg" xmlns:xlink="http://www.w3.org/1999/xlink" width="33px" height="33px" viewBox="0 0 33 33"> <!-- Generator: Sketch 43.1 (39012) - http://www.bohemiancoding.com/sketch --> <title>Account icon</title> <desc>Created with Sketch.</desc> <defs> <rect id="path-1" x="0" y="0" width="33" height="33"></rect> </defs> <g id="Symbols" stroke="none" stroke-width="1" fill="none" fill-rule="evenodd"> <g id="Account-icon"> <mask id="mask-2" fill="white"> <use xlink:href="#path-1"></use> </mask> <use id="Mask" fill-opacity="0" fill="#D8D8D8" xlink:href="#path-1"></use> <g id="Account-" mask="url(#mask-2)" stroke="#6E4D40" stroke-width="0.2" fill="#6E4D40"> <g transform="translate(9.000000, 8.000000)" id="Fill-1"> <path d="M12.7524223,18.1613495 C12.7460348,17.9374839 12.7225567,17.4359844 12.6303705,16.8401367 C12.5014134,16.0388534 12.2674953,15.0667966 11.7067823,14.3350064 C11.5498587,14.1334597 11.2551736,14.0940634 11.0493947,14.2477597 C10.8434432,14.401625 10.8033922,14.6902493 10.9604886,14.8917959 C11.3520209,15.3846722 11.594398,16.2496997 11.7035023,16.9784464 C11.760126,17.3429888 11.7889558,17.6743911 11.8027664,17.9117833 C11.8088086,18.0144165 11.8122613,18.0981125 11.8139876,18.1613495 L4.18480395,18.1613495 C4.19170929,17.9165176 4.22261065,17.3369019 4.34345396,16.699798 C4.46550571,16.0388534 4.69752487,15.3231261 5.03847565,14.8917959 C5.19557196,14.6902493 5.15621156,14.401625 4.95043266,14.2477597 C4.74465376,14.0940634 4.44979608,14.1334597 4.2939082,14.3350064 C3.73129626,15.0667966 3.4977234,16.0388534 3.36859369,16.8401367 C3.27571697,17.4359844 3.2525841,17.9374839 3.24636931,18.1613495 L0.856261194,18.1613495 C0.856261194,14.6457805 2.60969768,11.6251168 5.1206491,10.2922373 C5.98174403,10.8011765 6.99406573,11.0945351 8.07233335,11.0945351 C9.12125332,11.0945351 10.106299,10.8158867 10.9518569,10.3323099 C13.4237932,11.684803 15.1435662,14.6802734 15.1435662,18.1613495 L12.7524223,18.1613495 Z M3.23255864,5.54709845 C3.23255864,2.94660544 5.39962452,0.838650542 8.07233335,0.838650542 C10.7450422,0.838650542 12.9112449,2.94660544 12.9112449,5.54709845 C12.9112449,7.11939913 12.118858,8.51061217 10.9021385,9.36583282 C10.6067629,9.57346646 10.2872187,9.75015796 9.94695842,9.88931308 C9.37036318,10.1253526 8.73697158,10.2558845 8.07233335,10.2558845 C7.3826633,10.2558845 6.72700201,10.1145313 6.13314344,9.8615835 C5.79443689,9.7173559 5.47575581,9.53711367 5.18262446,9.32457663 C3.99922315,8.46631248 3.23255864,7.09403672 3.23255864,5.54709845 L3.23255864,5.54709845 Z M13.7151982,11.5522421 C13.1417104,10.8600173 12.4680952,10.2682276 11.7211109,9.80595527 C11.8516217,9.69977129 11.977644,9.58868391 12.0976241,9.47167864 C13.1275544,8.47070863 13.7675061,7.07763569 13.7675061,5.54709845 C13.7675061,4.0167303 13.1275544,2.62365735 12.0976241,1.62268735 C11.068557,0.620871933 9.64122483,0 8.07233335,0 C6.50361451,0 5.07507391,0.620871933 4.04704258,1.62268735 C3.01711228,2.62365735 2.37629745,4.0167303 2.37629745,5.54709845 C2.37629745,7.07763569 3.01711228,8.47070863 4.04704258,9.47167864 C4.14786043,9.56991573 4.25351201,9.66324941 4.36175309,9.75387778 C3.58110528,10.2234206 2.87900563,10.8339785 2.28462916,11.5522421 C0.858160161,13.2707994 0.00172633305,15.6024508 0,18.1613495 C0,18.3816643 0.0914956518,18.5977521 0.251008826,18.7539846 C0.410694633,18.9103861 0.630456831,19 0.856261194,19 L15.1435662,19 C15.3685074,19 15.5893054,18.9103861 15.7486459,18.7539846 C15.9083317,18.5977521 16,18.3816643 16,18.1613495 C15.998101,15.6024508 15.1409767,13.2707994 13.7151982,11.5522421 L13.7151982,11.5522421 Z"></path> </g> </g> </g> </g> </svg> 